<svg id="svg" version="1.1" width="400" height="400" viewBox="0 0 400 400" xmlns="http://www.w3.org/2000/svg" xmlns:xlink="http://www.w3.org/1999/xlink" ><g id="svgg"><path id="path0" d="M195.833 61.600 C 128.284 63.756,72.026 114.199,62.908 180.786 C 62.329 185.012,62.314 184.954,63.750 184.045 C 64.380 183.646,65.619 183.096,66.504 182.824 C 67.388 182.552,68.373 182.146,68.691 181.921 C 69.010 181.696,69.786 181.254,70.417 180.938 C 71.047 180.623,71.984 179.977,72.500 179.504 C 73.016 179.031,74.107 178.138,74.925 177.519 L 76.412 176.394 77.086 173.249 C 89.404 115.784,140.958 74.192,199.896 74.169 C 228.953 74.158,258.394 84.751,280.080 103.019 C 282.967 105.450,283.080 105.537,283.185 105.409 C 283.780 104.686,287.027 99.815,287.971 98.229 C 288.653 97.083,289.430 95.854,289.698 95.498 L 290.185 94.850 287.332 92.549 C 265.424 74.872,240.402 64.729,212.188 62.091 C 209.407 61.831,200.832 61.451,198.958 61.504 C 198.214 61.526,196.807 61.569,195.833 61.600 M157.917 141.268 C 145.073 142.361,134.370 154.082,132.253 169.375 C 132.048 170.857,131.979 175.047,131.979 186.042 C 131.979 197.037,132.048 201.227,132.253 202.708 C 134.404 218.246,145.057 229.736,158.333 230.836 C 162.012 231.141,161.667 231.258,161.667 229.714 L 161.667 228.387 160.052 228.290 C 154.455 227.956,149.632 219.302,147.768 206.250 C 147.281 202.843,147.201 170.402,147.670 166.667 C 149.357 153.230,154.279 144.138,160.052 143.793 L 161.667 143.696 161.667 142.369 L 161.667 141.042 160.781 141.071 C 160.294 141.087,159.005 141.176,157.917 141.268 M168.958 142.389 L 168.958 143.750 170.853 143.750 C 183.974 143.750,195.193 156.672,195.768 172.448 L 195.892 175.833 197.321 175.833 C 198.326 175.833,198.750 175.756,198.749 175.573 C 198.695 156.413,187.237 142.101,171.198 141.160 L 168.958 141.029 168.958 142.389 M208.333 167.917 L 208.333 193.958 205.208 193.958 L 202.083 193.958 202.083 195.313 L 202.083 196.667 205.208 196.667 L 208.333 196.667 208.333 214.271 L 208.333 231.875 216.040 231.875 L 223.747 231.875 223.801 215.885 L 223.854 199.896 224.824 201.121 C 233.075 211.545,233.072 234.394,224.818 245.348 C 222.107 248.947,220.586 249.664,215.469 249.756 L 211.667 249.825 211.667 251.162 L 211.667 252.500 214.782 252.500 C 221.196 252.500,226.875 251.222,231.223 248.800 C 237.164 245.491,243.131 238.444,244.805 232.760 L 245.066 231.875 260.137 231.875 L 275.208 231.875 275.208 224.167 L 275.208 216.458 273.750 216.458 L 272.292 216.458 272.289 218.073 C 272.284 221.241,271.307 223.531,268.977 225.833 C 265.781 228.991,265.005 229.167,254.204 229.167 L 245.787 229.167 245.934 228.385 C 248.601 214.234,239.803 199.825,225.782 195.380 L 223.750 194.736 223.750 191.535 L 223.750 188.333 233.698 188.336 C 241.654 188.338,243.870 188.398,244.764 188.636 C 249.610 189.926,253.125 194.478,253.125 199.464 L 253.125 201.250 254.479 201.250 L 255.833 201.250 255.833 187.083 L 255.833 172.917 254.479 172.917 L 253.125 172.917 253.123 174.531 C 253.115 179.517,249.579 184.030,244.679 185.306 C 243.663 185.571,241.777 185.625,233.602 185.625 L 223.750 185.625 223.750 163.750 L 223.750 141.875 216.042 141.875 L 208.333 141.875 208.333 167.917 M240.417 143.229 L 240.417 144.583 251.519 144.583 C 260.810 144.583,262.823 144.635,263.862 144.902 C 268.810 146.174,272.292 150.623,272.292 155.673 L 272.292 157.292 273.750 157.292 L 275.208 157.292 275.208 149.583 L 275.208 141.875 257.813 141.875 L 240.417 141.875 240.417 143.229 M327.775 152.362 C 325.856 154.811,324.041 157.356,323.616 158.196 C 323.432 158.558,322.974 159.288,322.598 159.817 C 322.221 160.347,321.638 161.580,321.301 162.558 L 320.689 164.335 321.598 167.740 C 342.523 246.129,284.252 323.647,202.813 325.759 C 149.738 327.136,99.769 293.180,82.006 243.667 C 81.891 243.346,81.607 243.639,80.493 245.229 C 79.739 246.306,78.872 247.469,78.565 247.813 C 78.258 248.156,77.553 249.120,76.998 249.955 C 76.442 250.789,75.249 252.158,74.346 252.997 L 72.705 254.522 73.638 256.626 C 102.420 321.541,176.976 354.010,244.583 331.071 C 318.060 306.140,356.800 224.978,329.964 152.194 C 329.627 151.280,329.333 150.514,329.311 150.492 C 329.289 150.470,328.598 151.312,327.775 152.362 M179.583 210.184 L 179.583 226.410 178.490 226.850 C 176.371 227.702,174.120 228.162,171.510 228.277 L 168.958 228.390 168.958 229.730 L 168.958 231.070 171.198 230.932 C 173.725 230.777,177.030 230.177,178.559 229.596 L 179.583 229.207 179.583 256.583 L 179.583 283.958 187.292 283.958 L 195.000 283.958 195.000 249.122 L 195.000 214.285 195.929 211.986 C 197.574 207.917,198.369 204.025,198.642 198.698 L 198.767 196.250 197.330 196.250 L 195.892 196.250 195.773 199.531 C 195.530 206.196,195.112 206.316,195.049 199.740 L 194.993 193.958 187.288 193.958 L 179.583 193.958 179.583 210.184 M50.833 353.945 C 47.709 354.575,46.570 356.694,46.570 361.875 C 46.570 365.940,46.736 366.616,48.127 368.200 C 49.109 369.318,51.875 370.483,51.875 369.779 C 51.875 369.671,51.704 369.583,51.495 369.583 C 50.006 369.583,49.167 366.805,49.167 361.875 C 49.167 356.945,50.006 354.167,51.495 354.167 C 51.704 354.167,51.875 354.073,51.875 353.958 C 51.875 353.731,51.891 353.732,50.833 353.945 M53.333 353.985 C 53.333 354.085,53.524 354.167,53.757 354.167 C 55.702 354.167,57.820 356.483,58.068 358.881 C 58.131 359.496,58.255 360.000,58.343 360.000 C 58.848 360.000,58.096 357.185,57.295 356.080 C 56.275 354.671,53.333 353.116,53.333 353.985 M65.319 353.981 C 63.319 359.382,59.583 369.712,59.583 369.843 C 59.583 369.940,60.158 369.992,60.859 369.958 L 62.136 369.896 64.478 363.558 L 66.820 357.219 66.206 355.538 C 65.519 353.656,65.471 353.571,65.319 353.981 M72.917 361.875 L 72.917 370.000 74.271 370.000 L 75.625 370.000 75.625 363.946 C 75.625 360.303,75.702 357.939,75.817 358.011 C 75.923 358.076,77.946 360.753,80.313 363.958 C 84.084 369.067,85.514 370.878,84.870 369.732 C 84.440 368.967,73.215 353.768,73.073 353.759 C 72.987 353.754,72.917 357.406,72.917 361.875 M82.292 353.932 C 82.292 354.033,82.575 354.171,82.922 354.241 C 84.408 354.538,84.583 355.013,84.583 358.741 C 84.583 360.830,84.661 362.083,84.792 362.083 C 84.924 362.083,85.000 360.556,85.000 357.917 L 85.000 353.750 83.646 353.750 C 82.901 353.750,82.292 353.832,82.292 353.932 M93.027 353.981 C 91.027 359.382,87.292 369.712,87.292 369.843 C 87.292 369.940,87.866 369.992,88.568 369.958 L 89.844 369.896 92.186 363.558 L 94.528 357.219 93.914 355.538 C 93.227 353.656,93.179 353.571,93.027 353.981 M100.625 361.875 L 100.625 370.000 101.979 370.000 L 103.333 370.000 103.333 361.875 L 103.333 353.750 101.979 353.750 L 100.625 353.750 100.625 361.875 M104.792 353.928 C 104.792 354.086,105.314 354.167,106.338 354.167 C 108.934 354.167,109.899 355.496,109.893 359.063 C 109.887 362.081,108.945 363.750,107.245 363.750 C 106.812 363.750,106.458 363.844,106.458 363.958 C 106.458 364.073,106.735 364.167,107.073 364.167 C 112.752 364.167,114.713 356.808,109.683 354.373 C 108.603 353.850,104.792 353.503,104.792 353.928 M114.375 353.850 C 114.375 353.916,115.406 355.720,116.667 357.859 L 118.958 361.748 118.958 365.874 L 118.958 370.000 120.313 370.000 L 121.667 370.000 121.666 365.885 L 121.665 361.771 119.319 357.813 L 116.973 353.854 115.674 353.792 C 114.959 353.758,114.375 353.784,114.375 353.850 M123.542 353.944 C 123.542 354.051,123.799 354.169,124.115 354.205 C 125.196 354.329,125.016 355.320,123.554 357.292 C 122.860 358.229,122.292 359.099,122.292 359.226 C 122.292 359.370,122.359 359.383,122.468 359.260 C 122.657 359.048,125.222 355.549,126.011 354.427 L 126.487 353.750 125.014 353.750 C 124.204 353.750,123.542 353.838,123.542 353.944 M135.417 361.875 L 135.417 370.000 136.771 370.000 L 138.125 370.000 138.125 361.875 L 138.125 353.750 136.771 353.750 L 135.417 353.750 135.417 361.875 M139.583 353.928 C 139.583 354.086,140.106 354.167,141.130 354.167 C 143.726 354.167,144.690 355.496,144.684 359.063 C 144.679 362.081,143.737 363.750,142.037 363.750 C 141.604 363.750,141.250 363.844,141.250 363.958 C 141.250 364.073,141.527 364.167,141.865 364.167 C 147.544 364.167,149.493 356.980,144.502 354.440 C 143.346 353.852,139.583 353.460,139.583 353.928 M149.167 361.875 L 149.167 370.000 150.521 370.000 L 151.875 370.000 151.875 361.875 L 151.875 353.750 150.521 353.750 L 149.167 353.750 149.167 361.875 M153.333 353.928 C 153.333 354.086,153.856 354.167,154.880 354.167 C 157.476 354.167,158.440 355.496,158.434 359.063 C 158.429 362.081,157.487 363.750,155.787 363.750 C 155.354 363.750,155.000 363.844,155.000 363.958 C 155.000 364.073,155.277 364.167,155.615 364.167 C 161.294 364.167,163.255 356.808,158.224 354.373 C 157.145 353.850,153.333 353.503,153.333 353.928 M163.125 361.875 L 163.125 370.000 164.479 370.000 L 165.833 370.000 165.833 366.042 L 165.833 362.083 167.933 362.083 C 170.273 362.083,171.250 362.600,171.250 363.838 C 171.250 364.133,171.344 364.375,171.458 364.375 C 171.586 364.375,171.667 363.368,171.667 361.771 C 171.667 360.174,171.586 359.167,171.458 359.167 C 171.344 359.167,171.248 359.424,171.245 359.740 C 171.234 361.099,170.196 361.667,167.722 361.667 L 165.833 361.667 165.833 357.708 L 165.833 353.750 164.479 353.750 L 163.125 353.750 163.125 361.875 M168.958 353.940 C 168.958 354.045,170.045 354.162,171.373 354.201 C 174.018 354.278,174.792 354.673,174.792 355.949 C 174.792 356.229,174.885 356.458,175.000 356.458 C 175.118 356.458,175.208 355.868,175.208 355.104 L 175.208 353.750 172.083 353.750 C 170.335 353.750,168.958 353.834,168.958 353.940 M177.292 361.875 L 177.292 370.000 178.646 370.000 L 180.000 370.000 180.022 365.990 C 180.039 362.873,180.095 362.107,180.271 362.552 C 180.488 363.103,180.975 363.398,180.785 362.865 C 180.734 362.721,179.998 360.612,179.148 358.177 C 178.299 355.742,177.534 353.750,177.448 353.750 C 177.362 353.750,177.292 357.406,177.292 361.875 M185.966 355.781 C 185.556 356.898,184.486 359.784,183.588 362.193 L 181.957 366.574 182.573 368.297 C 182.912 369.244,183.258 369.945,183.343 369.853 C 183.428 369.762,184.806 366.102,186.405 361.719 L 189.313 353.750 188.013 353.750 L 186.713 353.750 185.966 355.781 M191.667 361.875 L 191.667 370.000 193.021 370.000 L 194.375 370.000 194.375 361.875 L 194.375 353.750 193.021 353.750 L 191.667 353.750 191.667 361.875 M196.704 359.635 C 196.793 366.178,196.858 366.516,198.336 368.200 C 199.318 369.318,202.083 370.483,202.083 369.779 C 202.083 369.671,201.912 369.583,201.703 369.583 C 200.016 369.583,199.497 367.420,199.417 360.052 L 199.348 353.750 197.986 353.750 L 196.624 353.750 196.704 359.635 M206.042 353.935 C 206.042 354.037,206.366 354.181,206.762 354.255 C 207.963 354.481,208.333 355.178,208.333 357.216 C 208.333 358.239,208.419 358.958,208.542 358.958 C 208.669 358.958,208.750 357.951,208.750 356.354 L 208.750 353.750 207.396 353.750 C 206.651 353.750,206.042 353.833,206.042 353.935 M210.833 361.875 L 210.833 370.000 212.188 370.000 L 213.542 370.000 213.564 365.990 C 213.581 362.873,213.636 362.107,213.812 362.552 C 214.030 363.103,214.517 363.398,214.327 362.865 C 214.276 362.721,213.539 360.612,212.690 358.177 C 211.841 355.742,211.076 353.750,210.990 353.750 C 210.904 353.750,210.833 357.406,210.833 361.875 M219.508 355.781 C 219.097 356.898,218.027 359.784,217.130 362.193 L 215.499 366.574 216.115 368.297 C 216.453 369.244,216.800 369.945,216.885 369.853 C 216.970 369.762,218.348 366.102,219.947 361.719 L 222.855 353.750 221.555 353.750 L 220.255 353.750 219.508 355.781 M232.292 361.875 L 232.292 370.000 233.646 370.000 L 235.000 370.000 235.000 366.042 L 235.000 362.083 237.099 362.083 C 239.440 362.083,240.417 362.600,240.417 363.838 C 240.417 364.133,240.510 364.375,240.625 364.375 C 240.753 364.375,240.833 363.368,240.833 361.771 C 240.833 360.174,240.753 359.167,240.625 359.167 C 240.510 359.167,240.415 359.424,240.412 359.740 C 240.401 361.099,239.363 361.667,236.889 361.667 L 235.000 361.667 235.000 357.708 L 235.000 353.750 233.646 353.750 L 232.292 353.750 232.292 361.875 M238.125 353.940 C 238.125 354.045,239.211 354.162,240.539 354.201 C 243.185 354.278,243.958 354.673,243.958 355.949 C 243.958 356.229,244.052 356.458,244.167 356.458 C 244.284 356.458,244.375 355.868,244.375 355.104 L 244.375 353.750 241.250 353.750 C 239.502 353.750,238.125 353.834,238.125 353.940 M246.250 353.844 C 246.250 353.896,248.353 357.529,250.923 361.917 L 255.597 369.896 256.975 369.958 L 258.353 370.019 257.770 369.010 C 257.450 368.454,255.313 364.796,253.021 360.880 L 248.854 353.761 247.552 353.755 C 246.836 353.752,246.250 353.792,246.250 353.844 M255.417 353.944 C 255.417 354.051,255.674 354.169,255.990 354.205 C 257.082 354.331,256.897 355.348,255.430 357.275 C 254.735 358.187,254.167 359.047,254.167 359.186 C 254.167 359.415,255.457 357.771,257.577 354.844 L 258.369 353.750 256.893 353.750 C 256.081 353.750,255.417 353.838,255.417 353.944 M260.208 361.875 L 260.208 370.000 261.563 370.000 L 262.917 370.000 262.917 361.875 L 262.917 353.750 261.563 353.750 L 260.208 353.750 260.208 361.875 M264.375 353.928 C 264.375 354.086,264.897 354.167,265.922 354.167 C 268.517 354.167,269.482 355.496,269.476 359.063 C 269.471 362.081,268.528 363.750,266.829 363.750 C 266.396 363.750,266.042 363.844,266.042 363.958 C 266.042 364.073,266.318 364.167,266.656 364.167 C 272.336 364.167,274.284 356.980,269.293 354.440 C 268.138 353.852,264.375 353.460,264.375 353.928 M273.958 361.875 L 273.958 370.000 275.313 370.000 L 276.667 370.000 276.667 366.042 L 276.667 362.083 278.766 362.083 C 281.106 362.083,282.083 362.600,282.083 363.838 C 282.083 364.133,282.177 364.375,282.292 364.375 C 282.419 364.375,282.500 363.368,282.500 361.771 C 282.500 360.174,282.419 359.167,282.292 359.167 C 282.177 359.167,282.081 359.424,282.079 359.740 C 282.068 361.099,281.030 361.667,278.555 361.667 L 276.667 361.667 276.667 357.708 L 276.667 353.750 275.313 353.750 L 273.958 353.750 273.958 361.875 M279.792 353.940 C 279.792 354.045,280.878 354.162,282.206 354.201 C 284.852 354.278,285.625 354.673,285.625 355.949 C 285.625 356.229,285.719 356.458,285.833 356.458 C 285.951 356.458,286.042 355.868,286.042 355.104 L 286.042 353.750 282.917 353.750 C 281.168 353.750,279.792 353.834,279.792 353.940 M288.125 361.875 L 288.125 370.000 289.479 370.000 L 290.833 370.000 290.833 361.875 L 290.833 353.750 289.479 353.750 L 288.125 353.750 288.125 361.875 M292.292 353.928 C 292.292 354.086,292.814 354.167,293.838 354.167 C 296.434 354.167,297.399 355.496,297.393 359.063 C 297.387 362.081,296.445 363.750,294.745 363.750 C 294.312 363.750,293.958 363.844,293.958 363.958 C 293.958 364.073,294.235 364.167,294.573 364.167 C 300.252 364.167,302.213 356.808,297.183 354.373 C 296.103 353.850,292.292 353.503,292.292 353.928 M302.083 361.875 L 302.083 370.000 303.438 370.000 L 304.792 370.000 304.792 361.875 L 304.792 353.750 303.438 353.750 L 302.083 353.750 302.083 361.875 M307.083 361.875 L 307.083 370.000 308.438 370.000 L 309.792 370.000 309.792 366.042 L 309.792 362.083 311.891 362.083 C 314.231 362.083,315.208 362.600,315.208 363.838 C 315.208 364.133,315.302 364.375,315.417 364.375 C 315.544 364.375,315.625 363.368,315.625 361.771 C 315.625 360.174,315.544 359.167,315.417 359.167 C 315.302 359.167,315.206 359.424,315.204 359.740 C 315.193 361.099,314.155 361.667,311.680 361.667 L 309.792 361.667 309.792 357.708 L 309.792 353.750 308.438 353.750 L 307.083 353.750 307.083 361.875 M312.917 353.940 C 312.917 354.045,314.003 354.162,315.331 354.201 C 317.977 354.278,318.750 354.673,318.750 355.949 C 318.750 356.229,318.844 356.458,318.958 356.458 C 319.076 356.458,319.167 355.868,319.167 355.104 L 319.167 353.750 316.042 353.750 C 314.293 353.750,312.917 353.834,312.917 353.940 M321.250 361.875 L 321.250 370.000 322.604 370.000 L 323.958 370.000 323.958 363.946 C 323.958 360.303,324.035 357.939,324.150 358.011 C 324.256 358.076,326.279 360.753,328.646 363.958 C 332.417 369.067,333.847 370.878,333.203 369.732 C 332.774 368.967,321.548 353.768,321.406 353.759 C 321.320 353.754,321.250 357.406,321.250 361.875 M330.625 353.932 C 330.625 354.033,330.909 354.171,331.255 354.241 C 332.741 354.538,332.917 355.013,332.917 358.741 C 332.917 360.830,332.995 362.083,333.125 362.083 C 333.257 362.083,333.333 360.556,333.333 357.917 L 333.333 353.750 331.979 353.750 C 331.234 353.750,330.625 353.832,330.625 353.932 M339.792 353.945 C 336.667 354.575,335.528 356.694,335.528 361.875 C 335.528 365.940,335.695 366.616,337.086 368.200 C 338.068 369.318,340.833 370.483,340.833 369.779 C 340.833 369.671,340.662 369.583,340.453 369.583 C 338.964 369.583,338.125 366.805,338.125 361.875 C 338.125 356.945,338.964 354.167,340.453 354.167 C 340.662 354.167,340.833 354.073,340.833 353.958 C 340.833 353.731,340.849 353.732,339.792 353.945 M342.292 353.985 C 342.292 354.085,342.482 354.167,342.715 354.167 C 344.660 354.167,346.779 356.483,347.026 358.881 C 347.090 359.496,347.213 360.000,347.301 360.000 C 347.806 360.000,347.054 357.185,346.254 356.080 C 345.233 354.671,342.292 353.116,342.292 353.985 M349.167 361.875 L 349.167 370.000 350.521 370.000 L 351.875 370.000 351.875 366.042 L 351.875 362.083 353.974 362.083 C 356.315 362.083,357.292 362.600,357.292 363.838 C 357.292 364.133,357.385 364.375,357.500 364.375 C 357.628 364.375,357.708 363.368,357.708 361.771 C 357.708 360.174,357.628 359.167,357.500 359.167 C 357.385 359.167,357.290 359.424,357.287 359.740 C 357.276 361.099,356.238 361.667,353.764 361.667 L 351.875 361.667 351.875 357.708 L 351.875 353.750 350.521 353.750 L 349.167 353.750 349.167 361.875 M355.000 353.940 C 355.000 354.045,356.086 354.162,357.414 354.201 C 360.060 354.278,360.833 354.673,360.833 355.949 C 360.833 356.229,360.927 356.458,361.042 356.458 C 361.159 356.458,361.250 355.868,361.250 355.104 L 361.250 353.750 358.125 353.750 C 356.377 353.750,355.000 353.834,355.000 353.940 M69.176 364.695 C 70.507 368.598,70.453 369.583,68.912 369.583 C 68.708 369.583,68.542 369.677,68.542 369.792 C 68.542 369.909,69.132 370.000,69.896 370.000 C 70.641 370.000,71.250 369.941,71.250 369.870 C 71.250 369.501,68.432 361.667,68.299 361.667 C 68.214 361.667,68.608 363.029,69.176 364.695 M96.884 364.695 C 98.215 368.598,98.162 369.583,96.620 369.583 C 96.417 369.583,96.250 369.677,96.250 369.792 C 96.250 369.909,96.840 370.000,97.604 370.000 C 98.349 370.000,98.958 369.941,98.958 369.870 C 98.958 369.501,96.140 361.667,96.008 361.667 C 95.922 361.667,96.317 363.029,96.884 364.695 M188.958 365.009 C 188.958 368.737,188.783 369.212,187.297 369.509 C 186.208 369.727,186.610 370.000,188.021 370.000 L 189.375 370.000 189.375 365.833 C 189.375 363.194,189.299 361.667,189.167 361.667 C 189.036 361.667,188.958 362.920,188.958 365.009 M222.500 365.009 C 222.500 368.737,222.324 369.212,220.839 369.509 C 219.749 369.727,220.152 370.000,221.563 370.000 L 222.917 370.000 222.917 365.833 C 222.917 363.194,222.840 361.667,222.708 361.667 C 222.578 361.667,222.500 362.920,222.500 365.009 M58.068 364.869 C 57.820 367.267,55.702 369.583,53.757 369.583 C 53.524 369.583,53.333 369.665,53.333 369.765 C 53.333 370.634,56.275 369.079,57.295 367.670 C 58.096 366.565,58.848 363.750,58.343 363.750 C 58.255 363.750,58.131 364.254,58.068 364.869 M208.276 364.869 C 208.029 367.267,205.910 369.583,203.965 369.583 C 203.732 369.583,203.542 369.665,203.542 369.765 C 203.542 370.112,205.483 369.582,206.192 369.041 C 207.133 368.324,208.081 366.991,208.313 366.062 C 208.620 364.826,208.734 363.750,208.558 363.750 C 208.466 363.750,208.340 364.254,208.276 364.869 M347.026 364.869 C 346.779 367.267,344.660 369.583,342.715 369.583 C 342.482 369.583,342.292 369.665,342.292 369.765 C 342.292 370.634,345.233 369.079,346.254 367.670 C 347.054 366.565,347.806 363.750,347.301 363.750 C 347.213 363.750,347.090 364.254,347.026 364.869 M248.255 367.080 C 245.874 370.312,245.944 370.000,247.604 370.000 C 248.368 370.000,248.958 369.909,248.958 369.792 C 248.958 369.677,248.724 369.583,248.438 369.583 C 247.411 369.583,247.712 368.267,249.194 366.281 C 249.896 365.339,250.424 364.521,250.366 364.463 C 250.308 364.405,249.358 365.583,248.255 367.080 M110.000 366.576 C 110.000 366.641,110.241 367.010,110.535 367.396 C 111.223 368.298,111.188 369.444,110.469 369.546 C 109.457 369.689,110.075 370.000,111.372 370.000 C 112.126 370.000,112.712 369.926,112.674 369.836 C 112.292 368.934,110.000 366.139,110.000 366.576 M158.542 366.576 C 158.542 366.641,158.782 367.010,159.077 367.396 C 159.765 368.298,159.729 369.444,159.010 369.546 C 157.999 369.689,158.616 370.000,159.913 370.000 C 160.668 370.000,161.253 369.926,161.215 369.836 C 160.834 368.934,158.542 366.139,158.542 366.576 M297.500 366.576 C 297.500 366.641,297.741 367.010,298.035 367.396 C 298.723 368.298,298.688 369.444,297.969 369.546 C 296.957 369.689,297.575 370.000,298.872 370.000 C 299.626 370.000,300.212 369.926,300.174 369.836 C 299.792 368.934,297.500 366.139,297.500 366.576 M174.792 367.722 C 174.792 369.083,173.787 369.583,171.052 369.583 C 169.795 369.583,168.958 369.667,168.958 369.792 C 168.958 369.921,170.139 370.000,172.083 370.000 L 175.208 370.000 175.208 368.646 C 175.208 367.882,175.118 367.292,175.000 367.292 C 174.885 367.292,174.792 367.485,174.792 367.722 M243.958 367.722 C 243.958 369.083,242.953 369.583,240.219 369.583 C 238.962 369.583,238.125 369.667,238.125 369.792 C 238.125 369.921,239.306 370.000,241.250 370.000 L 244.375 370.000 244.375 368.646 C 244.375 367.882,244.284 367.292,244.167 367.292 C 244.052 367.292,243.958 367.485,243.958 367.722 M285.625 367.722 C 285.625 369.083,284.620 369.583,281.885 369.583 C 280.628 369.583,279.792 369.667,279.792 369.792 C 279.792 369.921,280.972 370.000,282.917 370.000 L 286.042 370.000 286.042 368.646 C 286.042 367.882,285.951 367.292,285.833 367.292 C 285.719 367.292,285.625 367.485,285.625 367.722 M318.750 367.722 C 318.750 369.083,317.745 369.583,315.010 369.583 C 313.753 369.583,312.917 369.667,312.917 369.792 C 312.917 369.921,314.097 370.000,316.042 370.000 L 319.167 370.000 319.167 368.646 C 319.167 367.882,319.076 367.292,318.958 367.292 C 318.844 367.292,318.750 367.485,318.750 367.722 M360.833 367.722 C 360.833 369.083,359.828 369.583,357.094 369.583 C 355.837 369.583,355.000 369.667,355.000 369.792 C 355.000 369.921,356.181 370.000,358.125 370.000 L 361.250 370.000 361.250 368.646 C 361.250 367.882,361.159 367.292,361.042 367.292 C 360.927 367.292,360.833 367.485,360.833 367.722 " stroke="none" fill="#040404" fill-rule="evenodd"></path><path id="path1" d="M0.000 200.000 L 0.000 400.000 200.000 400.000 L 400.000 400.000 400.000 200.000 L 400.000 0.000 200.000 0.000 L 0.000 0.000 0.000 200.000 M205.104 61.666 C 236.113 63.034,263.502 73.320,287.332 92.549 L 290.185 94.850 289.698 95.498 C 289.430 95.854,288.653 97.083,287.971 98.229 C 287.027 99.815,283.780 104.686,283.185 105.409 C 283.080 105.537,282.967 105.450,280.080 103.019 C 258.402 84.758,228.942 74.158,199.896 74.169 C 140.961 74.192,89.404 115.787,77.086 173.249 L 76.412 176.394 74.925 177.519 C 74.107 178.138,73.016 179.031,72.500 179.504 C 71.984 179.977,71.047 180.623,70.417 180.938 C 69.786 181.254,69.010 181.696,68.691 181.921 C 68.373 182.146,67.388 182.552,66.504 182.824 C 65.619 183.096,64.380 183.646,63.750 184.045 C 62.314 184.954,62.329 185.012,62.908 180.786 C 71.757 116.166,125.563 66.071,190.625 61.878 C 193.822 61.672,195.320 61.605,199.063 61.503 C 199.865 61.482,202.583 61.555,205.104 61.666 M161.667 142.366 L 161.667 143.690 160.178 143.814 C 154.291 144.308,149.317 153.548,147.812 166.789 C 147.320 171.117,147.456 203.795,147.980 207.042 C 150.036 219.787,154.665 227.807,160.237 228.274 L 161.667 228.394 161.667 229.748 L 161.667 231.102 159.115 230.984 C 145.512 230.354,134.242 218.578,132.195 202.854 C 131.726 199.249,131.726 172.834,132.195 169.229 C 134.276 153.247,146.012 141.248,159.740 141.067 L 161.667 141.042 161.667 142.366 M176.424 141.775 C 189.240 145.051,198.736 158.672,198.748 173.802 L 198.750 175.833 197.292 175.833 L 195.833 175.833 195.830 174.219 C 195.792 157.299,184.256 143.774,169.844 143.752 L 168.750 143.750 168.750 142.365 L 168.750 140.979 171.510 141.102 C 173.484 141.190,174.884 141.381,176.424 141.775 M223.958 163.764 L 223.958 185.654 233.906 185.578 C 243.480 185.505,243.906 185.485,245.223 185.046 C 249.901 183.487,253.106 179.050,253.121 174.115 L 253.125 172.917 254.479 172.917 L 255.833 172.917 255.833 187.083 L 255.833 201.250 254.479 201.250 L 253.125 201.250 253.125 200.038 C 253.125 194.561,249.336 189.723,244.192 188.633 C 243.126 188.407,240.672 188.340,233.385 188.337 L 223.958 188.333 223.960 191.510 L 223.962 194.688 226.158 195.387 C 239.730 199.708,247.848 212.788,246.185 227.656 L 246.016 229.167 253.685 229.163 C 257.903 229.160,262.010 229.065,262.813 228.950 C 268.090 228.195,272.271 223.212,272.288 217.656 L 272.292 216.458 273.750 216.458 L 275.208 216.458 275.208 224.167 L 275.208 231.875 260.236 231.875 L 245.264 231.875 244.792 233.177 C 241.817 241.389,234.422 248.496,226.144 251.099 C 223.295 251.994,220.840 252.319,215.990 252.442 L 211.458 252.558 211.458 251.198 L 211.458 249.838 215.156 249.745 C 221.443 249.588,223.942 247.808,227.151 241.200 C 232.978 229.201,231.761 209.382,224.689 201.146 L 223.974 200.313 223.966 216.094 L 223.958 231.875 216.146 231.875 L 208.333 231.875 208.333 214.271 L 208.333 196.667 205.208 196.667 L 202.083 196.667 202.083 195.313 L 202.083 193.958 205.208 193.958 L 208.333 193.958 208.333 167.917 L 208.333 141.875 216.146 141.875 L 223.958 141.875 223.958 163.764 M275.208 149.688 L 275.208 157.500 273.750 157.500 L 272.292 157.500 272.288 156.198 C 272.272 150.512,268.153 145.575,262.777 144.797 C 261.993 144.684,256.653 144.590,250.885 144.587 L 240.417 144.583 240.417 143.229 L 240.417 141.875 257.813 141.875 L 275.208 141.875 275.208 149.688 M330.007 152.297 C 355.229 220.138,322.594 297.136,256.146 326.563 C 186.523 357.396,104.357 325.910,73.638 256.626 L 72.705 254.522 74.346 252.997 C 75.249 252.158,76.442 250.789,76.998 249.955 C 77.553 249.120,78.258 248.156,78.565 247.813 C 78.872 247.469,79.739 246.307,80.493 245.231 C 81.775 243.399,81.875 243.306,82.053 243.772 C 107.544 310.500,180.646 342.889,246.811 316.770 C 305.331 293.670,337.893 228.782,321.598 167.740 L 320.689 164.335 321.301 162.558 C 321.638 161.580,322.221 160.347,322.598 159.817 C 322.974 159.288,323.432 158.558,323.616 158.196 C 324.177 157.089,329.163 150.345,329.311 150.492 C 329.333 150.514,329.646 151.326,330.007 152.297 M195.234 198.906 C 195.262 204.177,195.472 204.263,195.746 199.115 L 195.898 196.250 197.355 196.250 L 198.813 196.250 198.689 199.323 C 198.497 204.053,197.733 207.780,196.133 211.802 L 195.208 214.125 195.208 249.042 L 195.208 283.958 187.396 283.958 L 179.583 283.958 179.583 256.644 C 179.583 230.711,179.565 229.338,179.219 229.486 C 177.586 230.185,174.043 230.873,171.510 230.983 L 168.750 231.104 168.750 229.750 L 168.750 228.396 171.077 228.255 C 173.735 228.093,176.418 227.559,178.231 226.830 L 179.479 226.329 179.533 210.143 L 179.586 193.958 187.397 193.958 L 195.208 193.958 195.234 198.906 M102.433 244.196 C 101.399 244.603,101.308 244.469,101.782 243.230 L 102.140 242.293 102.721 243.073 L 103.303 243.853 102.433 244.196 M51.875 353.969 C 51.875 354.090,51.597 354.285,51.256 354.404 C 48.543 355.350,48.543 368.400,51.256 369.346 C 52.249 369.692,52.032 370.072,50.914 369.946 C 47.748 369.589,46.386 366.947,46.494 361.374 C 46.572 357.323,46.889 356.359,48.631 354.868 C 49.717 353.938,51.875 353.340,51.875 353.969 M55.342 354.181 C 56.356 354.672,57.299 355.664,57.933 356.907 C 58.440 357.902,58.732 360.000,58.362 360.000 C 58.232 360.000,58.125 359.833,58.125 359.629 C 58.125 357.191,56.184 354.669,54.088 354.383 C 53.634 354.321,53.224 354.154,53.177 354.010 C 53.038 353.593,54.340 353.696,55.342 354.181 M65.794 354.115 C 65.896 354.315,66.195 355.104,66.459 355.867 L 66.939 357.254 64.583 363.627 L 62.228 370.000 60.779 370.000 C 59.706 370.000,59.356 369.933,59.430 369.740 C 59.485 369.596,60.822 365.940,62.400 361.615 C 65.241 353.833,65.435 353.403,65.794 354.115 M78.703 361.056 C 85.410 370.158,85.300 370.000,84.924 370.000 C 84.756 370.000,82.685 367.378,80.321 364.173 C 77.957 360.968,75.957 358.305,75.876 358.255 C 75.795 358.205,75.755 360.827,75.787 364.082 L 75.846 370.000 74.381 370.000 L 72.917 370.000 72.917 361.858 C 72.917 355.606,72.975 353.735,73.167 353.799 C 73.305 353.845,75.796 357.110,78.703 361.056 M85.000 357.917 C 85.000 362.943,84.642 363.586,84.546 358.731 L 84.479 355.380 83.895 354.877 C 83.573 354.601,83.081 354.375,82.801 354.375 C 82.487 354.375,82.292 354.255,82.292 354.063 C 82.292 353.817,82.581 353.750,83.646 353.750 L 85.000 353.750 85.000 357.917 M93.503 354.115 C 93.604 354.315,93.903 355.104,94.167 355.867 L 94.647 357.254 92.292 363.627 L 89.936 370.000 88.488 370.000 C 87.415 370.000,87.064 369.932,87.138 369.740 C 87.192 369.596,88.531 365.940,90.112 361.615 C 92.965 353.814,93.147 353.410,93.503 354.115 M103.542 361.875 L 103.542 370.000 102.083 370.000 L 100.625 370.000 100.625 361.875 L 100.625 353.750 102.083 353.750 L 103.542 353.750 103.542 361.875 M109.219 354.047 C 112.734 355.301,113.832 359.700,111.326 362.488 C 110.073 363.881,106.458 365.061,106.458 364.077 C 106.458 363.846,106.659 363.750,107.141 363.750 C 108.726 363.750,109.617 362.282,109.750 359.449 C 109.924 355.735,109.159 354.525,106.539 354.375 C 105.348 354.307,104.691 354.181,104.635 354.010 C 104.514 353.646,108.179 353.676,109.219 354.047 M119.451 357.796 L 121.875 361.842 121.875 365.921 L 121.875 370.000 120.417 370.000 L 118.958 370.000 118.958 366.000 L 118.958 361.999 116.941 358.552 C 115.831 356.656,114.743 354.799,114.524 354.427 L 114.126 353.750 115.576 353.750 L 117.026 353.750 119.451 357.796 M124.533 356.665 C 123.204 358.493,122.340 359.507,122.217 359.383 C 122.093 359.260,122.498 358.529,123.302 357.423 C 124.758 355.418,125.018 354.375,124.063 354.375 C 123.738 354.375,123.542 354.257,123.542 354.063 C 123.542 353.813,123.853 353.750,125.097 353.750 L 126.653 353.750 124.533 356.665 M138.333 361.875 L 138.333 370.000 136.875 370.000 L 135.417 370.000 135.417 361.875 L 135.417 353.750 136.875 353.750 L 138.333 353.750 138.333 361.875 M144.063 354.095 C 147.515 355.271,148.600 359.727,146.108 362.498 C 144.864 363.882,141.250 365.057,141.250 364.077 C 141.250 363.846,141.451 363.750,141.933 363.750 C 143.518 363.750,144.409 362.282,144.542 359.449 C 144.715 355.758,143.929 354.529,141.296 354.375 C 140.132 354.307,139.482 354.180,139.426 354.010 C 139.292 353.602,142.805 353.666,144.063 354.095 M152.083 361.875 L 152.083 370.000 150.625 370.000 L 149.167 370.000 149.167 361.875 L 149.167 353.750 150.625 353.750 L 152.083 353.750 152.083 361.875 M157.761 354.047 C 161.275 355.301,162.373 359.700,159.867 362.488 C 158.615 363.881,155.000 365.061,155.000 364.077 C 155.000 363.846,155.201 363.750,155.683 363.750 C 157.268 363.750,158.159 362.282,158.292 359.449 C 158.465 355.758,157.679 354.529,155.046 354.375 C 153.882 354.307,153.232 354.180,153.176 354.010 C 153.056 353.646,156.720 353.676,157.761 354.047 M166.042 357.604 L 166.042 361.458 167.974 361.458 C 170.228 361.458,170.696 361.237,171.069 359.992 C 171.495 358.568,171.667 359.078,171.667 361.771 C 171.667 364.253,171.444 365.105,171.147 363.756 C 170.879 362.534,170.003 362.083,167.901 362.083 L 166.042 362.083 166.042 366.042 L 166.042 370.000 164.583 370.000 L 163.125 370.000 163.125 361.875 L 163.125 353.750 164.583 353.750 L 166.042 353.750 166.042 357.604 M175.208 355.104 C 175.208 356.558,174.969 356.865,174.664 355.802 C 174.317 354.592,173.673 354.326,171.170 354.359 C 169.310 354.383,168.958 354.337,168.958 354.069 C 168.958 353.797,169.416 353.750,172.083 353.750 L 175.208 353.750 175.208 355.104 M179.384 358.447 C 180.811 362.483,181.240 364.435,180.411 363.123 C 180.284 362.922,180.214 364.073,180.212 366.406 L 180.208 370.000 178.750 370.000 L 177.292 370.000 177.292 361.858 C 177.292 355.866,177.354 353.736,177.529 353.794 C 177.659 353.838,178.494 355.931,179.384 358.447 M189.375 353.837 C 189.375 353.885,188.146 357.284,186.643 361.389 C 185.140 365.495,183.818 369.112,183.706 369.427 C 183.362 370.388,183.029 370.080,182.432 368.249 L 181.862 366.498 184.212 360.128 L 186.563 353.759 187.969 353.754 C 188.742 353.752,189.375 353.789,189.375 353.837 M194.578 361.875 L 194.592 370.000 193.129 370.000 L 191.667 370.000 191.667 361.875 L 191.667 353.750 193.116 353.750 L 194.565 353.750 194.578 361.875 M199.570 359.805 C 199.575 367.085,199.922 368.808,201.492 369.355 C 202.462 369.693,202.226 370.070,201.122 369.946 C 197.651 369.555,196.669 367.237,196.668 359.427 L 196.667 353.750 198.116 353.750 L 199.566 353.750 199.570 359.805 M208.750 356.458 C 208.750 359.535,208.413 360.149,208.302 357.273 C 208.222 355.194,207.727 354.375,206.551 354.375 C 206.237 354.375,206.042 354.255,206.042 354.063 C 206.042 353.817,206.331 353.750,207.396 353.750 L 208.750 353.750 208.750 356.458 M212.925 358.447 C 214.353 362.483,214.782 364.435,213.953 363.123 C 213.825 362.922,213.755 364.073,213.753 366.406 L 213.750 370.000 212.292 370.000 L 210.833 370.000 210.833 361.858 C 210.833 355.866,210.896 353.736,211.070 353.794 C 211.201 353.838,212.035 355.931,212.925 358.447 M222.917 353.837 C 222.917 353.885,221.687 357.284,220.184 361.389 C 218.682 365.495,217.360 369.112,217.247 369.427 C 216.908 370.377,216.587 370.087,215.971 368.274 L 215.385 366.548 217.745 360.154 L 220.104 353.759 221.510 353.754 C 222.284 353.752,222.917 353.789,222.917 353.837 M235.208 357.135 C 235.198 358.997,235.194 360.732,235.199 360.990 C 235.208 361.441,235.278 361.458,237.141 361.458 C 239.395 361.458,239.862 361.237,240.235 359.992 C 240.662 358.568,240.833 359.078,240.833 361.771 C 240.833 364.253,240.610 365.105,240.314 363.756 C 240.046 362.534,239.170 362.083,237.067 362.083 C 235.281 362.083,235.208 362.102,235.199 362.552 C 235.194 362.810,235.198 364.591,235.208 366.510 L 235.226 370.000 233.759 370.000 L 232.292 370.000 232.292 361.875 L 232.292 353.750 233.759 353.750 L 235.226 353.750 235.208 357.135 M244.375 355.104 C 244.375 356.514,244.091 356.913,243.855 355.836 C 243.595 354.654,242.934 354.375,240.389 354.375 C 238.515 354.375,238.125 354.321,238.125 354.063 C 238.125 353.799,238.611 353.750,241.250 353.750 L 244.375 353.750 244.375 355.104 M253.672 361.771 C 256.232 366.125,258.328 369.758,258.330 369.844 C 258.332 369.930,257.697 370.000,256.920 370.000 L 255.507 370.000 251.035 362.366 C 248.575 358.167,246.440 354.506,246.291 354.231 L 246.019 353.731 247.518 353.793 L 249.017 353.854 253.672 361.771 M256.742 356.198 C 254.204 359.639,254.216 359.624,254.067 359.382 C 253.905 359.121,253.958 359.031,255.352 357.169 C 256.640 355.450,256.865 354.375,255.938 354.375 C 255.613 354.375,255.417 354.257,255.417 354.063 C 255.417 353.812,255.730 353.750,256.982 353.750 L 258.548 353.750 256.742 356.198 M263.125 361.875 L 263.125 370.000 261.667 370.000 L 260.208 370.000 260.208 361.875 L 260.208 353.750 261.667 353.750 L 263.125 353.750 263.125 361.875 M268.855 354.095 C 272.312 355.273,273.391 359.727,270.892 362.506 C 269.673 363.863,266.042 365.033,266.042 364.070 C 266.042 363.847,266.250 363.750,266.724 363.750 C 268.310 363.750,269.200 362.282,269.333 359.449 C 269.500 355.894,268.604 354.391,266.294 354.351 C 264.387 354.318,264.319 354.307,264.219 354.010 C 264.082 353.602,267.597 353.666,268.855 354.095 M276.875 357.135 C 276.865 358.997,276.861 360.732,276.866 360.990 C 276.875 361.441,276.945 361.458,278.808 361.458 C 281.062 361.458,281.529 361.237,281.902 359.992 C 282.329 358.568,282.500 359.078,282.500 361.771 C 282.500 364.253,282.277 365.105,281.980 363.756 C 281.712 362.534,280.837 362.083,278.734 362.083 C 276.948 362.083,276.875 362.102,276.866 362.552 C 276.861 362.810,276.865 364.591,276.875 366.510 L 276.892 370.000 275.425 370.000 L 273.958 370.000 273.958 361.875 L 273.958 353.750 275.425 353.750 L 276.893 353.750 276.875 357.135 M286.042 355.104 C 286.042 356.514,285.758 356.913,285.521 355.836 C 285.262 354.654,284.600 354.375,282.055 354.375 C 280.182 354.375,279.792 354.321,279.792 354.063 C 279.792 353.799,280.278 353.750,282.917 353.750 L 286.042 353.750 286.042 355.104 M291.042 361.875 L 291.042 370.000 289.583 370.000 L 288.125 370.000 288.125 361.875 L 288.125 353.750 289.583 353.750 L 291.042 353.750 291.042 361.875 M296.719 354.047 C 300.234 355.301,301.332 359.700,298.826 362.488 C 297.573 363.881,293.958 365.061,293.958 364.077 C 293.958 363.846,294.159 363.750,294.641 363.750 C 296.226 363.750,297.117 362.282,297.250 359.449 C 297.423 355.758,296.637 354.529,294.004 354.375 C 292.841 354.307,292.191 354.180,292.135 354.010 C 292.014 353.646,295.679 353.676,296.719 354.047 M305.000 361.875 L 305.000 370.000 303.542 370.000 L 302.083 370.000 302.083 361.875 L 302.083 353.750 303.542 353.750 L 305.000 353.750 305.000 361.875 M310.000 357.604 L 310.000 361.458 311.198 361.479 C 314.095 361.530,314.628 361.325,315.024 360.001 C 315.454 358.568,315.625 359.073,315.625 361.771 C 315.625 364.253,315.402 365.105,315.105 363.756 C 314.837 362.534,313.962 362.083,311.859 362.083 C 310.231 362.083,309.999 362.129,309.991 362.448 C 309.986 362.648,309.990 364.430,310.000 366.406 L 310.017 370.000 308.550 370.000 L 307.083 370.000 307.083 361.875 L 307.083 353.750 308.542 353.750 L 310.000 353.750 310.000 357.604 M319.167 355.104 C 319.167 356.514,318.883 356.913,318.646 355.836 C 318.387 354.654,317.725 354.375,315.180 354.375 C 313.307 354.375,312.917 354.321,312.917 354.063 C 312.917 353.799,313.403 353.750,316.042 353.750 L 319.167 353.750 319.167 355.104 M327.037 361.056 C 333.743 370.158,333.634 370.000,333.257 370.000 C 333.089 370.000,331.018 367.378,328.654 364.173 C 326.290 360.968,324.290 358.305,324.209 358.255 C 324.129 358.205,324.089 360.827,324.121 364.082 L 324.179 370.000 322.715 370.000 L 321.250 370.000 321.250 361.858 C 321.250 355.606,321.308 353.735,321.501 353.799 C 321.638 353.845,324.130 357.110,327.037 361.056 M333.333 357.917 C 333.333 362.943,332.975 363.586,332.879 358.731 L 332.813 355.380 332.228 354.877 C 331.906 354.601,331.414 354.375,331.134 354.375 C 330.820 354.375,330.625 354.255,330.625 354.063 C 330.625 353.817,330.914 353.750,331.979 353.750 L 333.333 353.750 333.333 357.917 M340.833 353.969 C 340.833 354.090,340.567 354.281,340.242 354.395 C 338.817 354.891,338.314 356.844,338.314 361.875 C 338.314 366.906,338.817 368.859,340.242 369.355 C 341.212 369.693,340.976 370.070,339.872 369.946 C 336.707 369.589,335.344 366.947,335.452 361.374 C 335.530 357.323,335.847 356.359,337.589 354.868 C 338.675 353.938,340.833 353.340,340.833 353.969 M344.300 354.181 C 345.314 354.672,346.257 355.664,346.892 356.907 C 347.399 357.902,347.690 360.000,347.321 360.000 C 347.190 360.000,347.083 359.833,347.083 359.629 C 347.083 357.191,345.142 354.669,343.046 354.383 C 342.593 354.321,342.183 354.154,342.135 354.010 C 341.997 353.593,343.298 353.696,344.300 354.181 M352.083 357.604 L 352.083 361.458 354.016 361.458 C 356.270 361.458,356.737 361.237,357.110 359.992 C 357.537 358.568,357.708 359.078,357.708 361.771 C 357.708 364.253,357.485 365.105,357.189 363.756 C 356.921 362.534,356.045 362.083,353.942 362.083 L 352.083 362.083 352.083 366.042 L 352.083 370.000 350.625 370.000 L 349.167 370.000 349.167 361.875 L 349.167 353.750 350.625 353.750 L 352.083 353.750 352.083 357.604 M361.250 355.104 C 361.250 356.514,360.966 356.913,360.730 355.836 C 360.470 354.654,359.809 354.375,357.264 354.375 C 355.390 354.375,355.000 354.321,355.000 354.063 C 355.000 353.799,355.486 353.750,358.125 353.750 L 361.250 353.750 361.250 355.104 M68.542 361.526 C 68.542 361.603,71.141 369.087,71.358 369.635 C 71.488 369.962,71.349 370.000,70.022 370.000 C 68.845 370.000,68.542 369.936,68.542 369.688 C 68.542 369.494,68.738 369.375,69.058 369.375 C 70.363 369.375,70.388 368.623,69.200 365.140 C 68.079 361.853,67.986 361.458,68.333 361.458 C 68.448 361.458,68.542 361.489,68.542 361.526 M96.250 361.526 C 96.250 361.603,98.849 369.087,99.067 369.635 C 99.196 369.962,99.056 370.000,97.713 370.000 C 96.258 370.000,95.648 369.588,96.844 369.412 C 98.069 369.232,98.079 368.573,96.909 365.140 C 95.788 361.853,95.695 361.458,96.042 361.458 C 96.156 361.458,96.250 361.489,96.250 361.526 M189.375 365.729 L 189.375 370.000 188.021 370.000 C 186.956 370.000,186.667 369.933,186.667 369.688 C 186.667 369.511,186.853 369.375,187.097 369.375 C 188.599 369.375,188.958 368.451,188.958 364.594 C 188.958 362.642,189.037 361.458,189.167 361.458 C 189.299 361.458,189.375 363.021,189.375 365.729 M222.917 365.729 L 222.917 370.000 221.563 370.000 C 220.498 370.000,220.208 369.933,220.208 369.688 C 220.208 369.511,220.395 369.375,220.639 369.375 C 222.140 369.375,222.500 368.451,222.500 364.594 C 222.500 362.642,222.579 361.458,222.708 361.458 C 222.840 361.458,222.917 363.021,222.917 365.729 M58.484 364.869 C 58.212 367.505,55.920 370.000,53.771 370.000 C 52.792 370.000,53.057 369.507,54.114 369.363 C 56.166 369.084,58.125 366.524,58.125 364.121 C 58.125 363.917,58.232 363.750,58.362 363.750 C 58.525 363.750,58.564 364.103,58.484 364.869 M208.750 364.471 C 208.750 367.036,206.193 370.000,203.979 370.000 C 203.001 370.000,203.265 369.507,204.320 369.364 C 206.122 369.118,207.748 367.291,208.167 365.040 C 208.428 363.635,208.750 363.321,208.750 364.471 M347.443 364.869 C 347.171 367.505,344.879 370.000,342.729 370.000 C 341.750 370.000,342.016 369.507,343.072 369.363 C 345.125 369.084,347.083 366.524,347.083 364.121 C 347.083 363.917,347.190 363.750,347.321 363.750 C 347.483 363.750,347.522 364.103,347.443 364.869 M250.625 364.486 C 250.625 364.548,250.016 365.406,249.271 366.393 C 247.734 368.430,247.505 369.299,248.474 369.413 C 249.821 369.573,249.193 370.000,247.611 370.000 C 246.348 370.000,246.055 369.943,246.188 369.725 C 247.589 367.408,250.625 363.825,250.625 364.486 M110.638 366.725 C 110.817 366.980,111.412 367.820,111.959 368.594 L 112.953 370.000 111.355 370.000 C 109.751 370.000,109.239 369.652,110.432 369.372 C 111.179 369.197,111.181 368.474,110.439 367.465 C 110.091 366.991,109.855 366.524,109.915 366.427 C 110.089 366.146,110.288 366.228,110.638 366.725 M159.180 366.725 C 159.359 366.980,159.953 367.820,160.500 368.594 L 161.495 370.000 159.897 370.000 C 158.293 370.000,157.781 369.652,158.974 369.372 C 159.721 369.197,159.723 368.474,158.980 367.465 C 158.632 366.991,158.397 366.524,158.457 366.427 C 158.630 366.146,158.830 366.228,159.180 366.725 M298.138 366.725 C 298.317 366.980,298.912 367.820,299.459 368.594 L 300.453 370.000 298.855 370.000 C 297.251 370.000,296.739 369.652,297.932 369.372 C 298.679 369.197,298.681 368.474,297.939 367.465 C 297.591 366.991,297.355 366.524,297.415 366.427 C 297.589 366.146,297.788 366.228,298.138 366.725 M175.208 368.542 L 175.208 370.000 172.083 370.000 C 169.444 370.000,168.958 369.951,168.958 369.688 C 168.958 369.429,169.353 369.375,171.259 369.375 C 173.830 369.375,174.444 369.080,174.718 367.714 C 174.942 366.594,175.208 367.044,175.208 368.542 M244.375 368.542 L 244.375 370.000 241.250 370.000 C 238.611 370.000,238.125 369.951,238.125 369.688 C 238.125 369.429,238.520 369.375,240.426 369.375 C 242.996 369.375,243.611 369.080,243.884 367.714 C 244.108 366.594,244.375 367.044,244.375 368.542 M286.042 368.542 L 286.042 370.000 282.917 370.000 C 280.278 370.000,279.792 369.951,279.792 369.688 C 279.792 369.429,280.186 369.375,282.093 369.375 C 284.663 369.375,285.278 369.080,285.551 367.714 C 285.775 366.594,286.042 367.044,286.042 368.542 M319.167 368.542 L 319.167 370.000 316.042 370.000 C 313.403 370.000,312.917 369.951,312.917 369.688 C 312.917 369.429,313.311 369.375,315.218 369.375 C 317.788 369.375,318.403 369.080,318.676 367.714 C 318.900 366.594,319.167 367.044,319.167 368.542 M361.250 368.542 L 361.250 370.000 358.125 370.000 C 355.486 370.000,355.000 369.951,355.000 369.688 C 355.000 369.429,355.395 369.375,357.301 369.375 C 359.871 369.375,360.486 369.080,360.759 367.714 C 360.983 366.594,361.250 367.044,361.250 368.542 " stroke="none" fill="#fbfbfb" fill-rule="evenodd"></path><path id="path2" d="M168.818 142.396 C 168.819 143.198,168.857 143.501,168.902 143.068 C 168.947 142.636,168.946 141.980,168.900 141.610 C 168.854 141.240,168.817 141.594,168.818 142.396 M223.850 163.750 C 223.850 175.839,223.876 180.784,223.906 174.740 C 223.937 168.695,223.937 158.805,223.906 152.760 C 223.876 146.716,223.850 151.661,223.850 163.750 M268.854 147.917 C 269.302 148.375,269.715 148.750,269.772 148.750 C 269.829 148.750,269.510 148.375,269.063 147.917 C 268.615 147.458,268.202 147.083,268.145 147.083 C 268.087 147.083,268.407 147.458,268.854 147.917 M272.969 157.443 C 273.398 157.488,274.102 157.488,274.531 157.443 C 274.961 157.398,274.609 157.362,273.750 157.362 C 272.891 157.362,272.539 157.398,272.969 157.443 M131.923 171.667 C 131.923 172.068,131.966 172.232,132.019 172.031 C 132.071 171.831,132.071 171.503,132.019 171.302 C 131.966 171.102,131.923 171.266,131.923 171.667 M198.590 171.667 C 198.590 172.068,198.633 172.232,198.685 172.031 C 198.738 171.831,198.738 171.503,198.685 171.302 C 198.633 171.102,198.590 171.266,198.590 171.667 M147.390 186.042 C 147.390 194.234,147.416 197.586,147.448 193.490 C 147.479 189.393,147.479 182.690,147.448 178.594 C 147.416 174.497,147.390 177.849,147.390 186.042 M223.834 191.563 C 223.835 193.396,223.866 194.118,223.905 193.167 C 223.944 192.216,223.944 190.716,223.905 189.834 C 223.866 188.951,223.834 189.729,223.834 191.563 M195.066 199.583 C 195.053 202.734,195.103 205.031,195.178 204.688 C 195.252 204.344,195.262 201.766,195.201 198.958 L 195.090 193.854 195.066 199.583 M131.923 200.417 C 131.923 200.818,131.966 200.982,132.019 200.781 C 132.071 200.581,132.071 200.253,132.019 200.052 C 131.966 199.852,131.923 200.016,131.923 200.417 M223.801 215.990 L 223.852 231.979 223.906 216.173 C 223.958 201.178,223.980 200.382,224.324 200.649 C 224.617 200.876,224.611 200.840,224.291 200.465 C 224.072 200.209,223.861 200.000,223.822 200.000 C 223.782 200.000,223.773 207.195,223.801 215.990 M195.102 249.063 C 195.102 268.313,195.126 276.157,195.156 266.494 C 195.186 256.831,195.186 241.081,195.156 231.494 C 195.126 221.907,195.102 229.813,195.102 249.063 M230.915 223.125 C 230.915 224.672,230.948 225.305,230.988 224.531 C 231.028 223.758,231.028 222.492,230.988 221.719 C 230.948 220.945,230.915 221.578,230.915 223.125 M268.844 225.885 L 268.021 226.771 268.906 225.947 C 269.730 225.181,269.887 225.000,269.730 225.000 C 269.696 225.000,269.297 225.398,268.844 225.885 M168.818 229.688 C 168.819 230.490,168.857 230.792,168.902 230.360 C 168.947 229.928,168.946 229.271,168.900 228.902 C 168.854 228.532,168.817 228.885,168.818 229.688 M101.782 243.230 C 101.308 244.469,101.399 244.603,102.433 244.196 L 103.303 243.853 102.721 243.073 L 102.140 242.293 101.782 243.230 M237.806 243.802 L 236.563 245.104 237.865 243.861 C 239.074 242.706,239.262 242.500,239.108 242.500 C 239.076 242.500,238.490 243.086,237.806 243.802 M211.527 251.146 C 211.528 251.948,211.565 252.251,211.610 251.818 C 211.655 251.386,211.655 250.730,211.609 250.360 C 211.563 249.990,211.526 250.344,211.527 251.146 M103.428 361.875 C 103.428 366.401,103.456 368.253,103.489 365.990 C 103.523 363.727,103.523 360.023,103.489 357.760 C 103.456 355.497,103.428 357.349,103.428 361.875 M104.636 353.958 C 104.702 354.201,105.090 354.274,106.371 354.286 L 108.021 354.302 106.464 354.224 C 105.576 354.180,104.832 354.039,104.730 353.896 C 104.604 353.719,104.576 353.738,104.636 353.958 M138.220 361.875 C 138.220 366.401,138.247 368.253,138.281 365.990 C 138.315 363.727,138.315 360.023,138.281 357.760 C 138.247 355.497,138.220 357.349,138.220 361.875 M139.428 353.958 C 139.494 354.201,139.882 354.274,141.163 354.286 L 142.813 354.302 141.256 354.224 C 140.367 354.180,139.623 354.039,139.521 353.896 C 139.396 353.719,139.368 353.738,139.428 353.958 M151.970 361.875 C 151.970 366.401,151.997 368.253,152.031 365.990 C 152.065 363.727,152.065 360.023,152.031 357.760 C 151.997 355.497,151.970 357.349,151.970 361.875 M153.178 353.958 C 153.244 354.201,153.632 354.274,154.913 354.286 L 156.563 354.302 155.006 354.224 C 154.117 354.180,153.373 354.039,153.271 353.896 C 153.146 353.719,153.118 353.738,153.178 353.958 M165.881 357.656 L 165.833 361.667 167.760 361.624 L 169.688 361.581 167.869 361.512 L 166.051 361.442 165.989 357.544 L 165.928 353.646 165.881 357.656 M235.085 357.083 C 235.085 358.974,235.116 359.747,235.155 358.802 C 235.194 357.857,235.194 356.310,235.155 355.365 C 235.116 354.419,235.085 355.193,235.085 357.083 M263.012 361.875 C 263.012 366.401,263.039 368.253,263.073 365.990 C 263.106 363.727,263.106 360.023,263.073 357.760 C 263.039 355.497,263.012 357.349,263.012 361.875 M276.751 357.083 C 276.751 358.974,276.783 359.747,276.822 358.802 C 276.860 357.857,276.860 356.310,276.822 355.365 C 276.783 354.419,276.751 355.193,276.751 357.083 M290.928 361.875 C 290.928 366.401,290.956 368.253,290.989 365.990 C 291.023 363.727,291.023 360.023,290.989 357.760 C 290.956 355.497,290.928 357.349,290.928 361.875 M292.136 353.958 C 292.202 354.201,292.590 354.274,293.871 354.286 L 295.521 354.302 293.964 354.224 C 293.076 354.180,292.332 354.039,292.230 353.896 C 292.104 353.719,292.076 353.738,292.136 353.958 M304.887 361.875 C 304.887 366.401,304.914 368.253,304.948 365.990 C 304.981 363.727,304.981 360.023,304.948 357.760 C 304.914 355.497,304.887 357.349,304.887 361.875 M309.839 357.656 L 309.792 361.667 311.094 361.627 L 312.396 361.588 311.202 361.513 L 310.009 361.438 309.948 357.542 L 309.886 353.646 309.839 357.656 M351.922 357.656 L 351.875 361.667 353.802 361.624 L 355.729 361.581 353.911 361.512 L 352.092 361.442 352.031 357.544 L 351.969 353.646 351.922 357.656 M169.850 354.320 C 170.398 354.363,171.242 354.363,171.725 354.319 C 172.209 354.275,171.760 354.240,170.729 354.241 C 169.698 354.241,169.302 354.277,169.850 354.320 M239.115 354.320 C 239.716 354.362,240.701 354.362,241.302 354.320 C 241.904 354.278,241.411 354.244,240.208 354.244 C 239.005 354.244,238.513 354.278,239.115 354.320 M265.573 354.317 C 265.945 354.364,266.555 354.364,266.927 354.317 C 267.299 354.271,266.995 354.233,266.250 354.233 C 265.505 354.233,265.201 354.271,265.573 354.317 M280.781 354.320 C 281.383 354.362,282.367 354.362,282.969 354.320 C 283.570 354.278,283.078 354.244,281.875 354.244 C 280.672 354.244,280.180 354.278,280.781 354.320 M313.906 354.320 C 314.508 354.362,315.492 354.362,316.094 354.320 C 316.695 354.278,316.203 354.244,315.000 354.244 C 313.797 354.244,313.305 354.278,313.906 354.320 M355.990 354.320 C 356.591 354.362,357.576 354.362,358.177 354.320 C 358.779 354.278,358.286 354.244,357.083 354.244 C 355.880 354.244,355.388 354.278,355.990 354.320 M194.470 362.188 C 194.469 366.542,194.497 368.353,194.531 366.212 C 194.565 364.071,194.565 360.508,194.531 358.295 C 194.497 356.082,194.470 357.833,194.470 362.188 M199.464 359.063 C 199.464 361.698,199.494 362.747,199.531 361.394 C 199.567 360.042,199.567 357.885,199.530 356.603 C 199.494 355.320,199.464 356.427,199.464 359.063 M75.683 363.906 L 75.717 369.896 75.779 364.104 C 75.826 359.579,75.896 358.347,76.097 358.467 C 76.266 358.568,76.256 358.500,76.068 358.269 C 75.911 358.075,75.752 357.917,75.715 357.917 C 75.679 357.917,75.664 360.612,75.683 363.906 M109.854 358.958 C 109.854 359.589,109.893 359.846,109.941 359.531 C 109.989 359.216,109.989 358.701,109.941 358.385 C 109.893 358.070,109.854 358.328,109.854 358.958 M144.646 358.958 C 144.646 359.589,144.685 359.846,144.733 359.531 C 144.780 359.216,144.780 358.701,144.733 358.385 C 144.685 358.070,144.646 358.328,144.646 358.958 M158.396 358.958 C 158.396 359.589,158.435 359.846,158.483 359.531 C 158.530 359.216,158.530 358.701,158.483 358.385 C 158.435 358.070,158.396 358.328,158.396 358.958 M269.437 358.958 C 269.437 359.589,269.476 359.846,269.524 359.531 C 269.572 359.216,269.572 358.701,269.524 358.385 C 269.476 358.070,269.437 358.328,269.437 358.958 M297.354 358.958 C 297.354 359.589,297.393 359.846,297.441 359.531 C 297.489 359.216,297.489 358.701,297.441 358.385 C 297.393 358.070,297.354 358.328,297.354 358.958 M324.016 363.906 L 324.051 369.896 324.112 364.104 C 324.160 359.579,324.229 358.347,324.430 358.467 C 324.599 358.568,324.589 358.500,324.402 358.269 C 324.244 358.075,324.086 357.917,324.049 357.917 C 324.012 357.917,323.997 360.612,324.016 363.906 M49.215 359.167 C 49.215 359.568,49.258 359.732,49.310 359.531 C 49.363 359.331,49.363 359.003,49.310 358.802 C 49.258 358.602,49.215 358.766,49.215 359.167 M338.173 359.167 C 338.173 359.568,338.216 359.732,338.269 359.531 C 338.321 359.331,338.321 359.003,338.269 358.802 C 338.216 358.602,338.173 358.766,338.173 359.167 M49.248 362.604 C 49.248 364.094,49.281 364.676,49.321 363.898 C 49.362 363.119,49.361 361.901,49.321 361.189 C 49.280 360.478,49.247 361.115,49.248 362.604 M338.200 361.875 C 338.200 362.964,338.235 363.409,338.278 362.865 C 338.321 362.320,338.321 361.430,338.278 360.885 C 338.235 360.341,338.200 360.786,338.200 361.875 M235.028 361.094 L 235.000 361.667 236.927 361.624 L 238.854 361.581 237.045 361.512 C 235.370 361.448,235.229 361.408,235.146 360.982 C 235.071 360.596,235.052 360.615,235.028 361.094 M276.695 361.094 L 276.667 361.667 278.594 361.624 L 280.521 361.581 278.711 361.512 C 277.036 361.448,276.895 361.408,276.813 360.982 C 276.738 360.596,276.719 360.615,276.695 361.094 M121.755 365.833 C 121.755 368.182,121.785 369.143,121.822 367.969 C 121.859 366.794,121.859 364.872,121.822 363.698 C 121.785 362.523,121.755 363.484,121.755 365.833 M165.921 366.042 C 165.921 368.276,165.951 369.190,165.989 368.073 C 166.026 366.956,166.026 365.128,165.989 364.010 C 165.951 362.893,165.921 363.807,165.921 366.042 M351.962 366.042 C 351.962 368.276,351.993 369.190,352.030 368.073 C 352.068 366.956,352.068 365.128,352.030 364.010 C 351.993 362.893,351.962 363.807,351.962 366.042 M180.000 366.146 C 180.000 368.304,180.043 370.026,180.096 369.973 C 180.239 369.830,180.264 362.486,180.122 362.344 C 180.055 362.277,180.000 363.988,180.000 366.146 M213.542 366.146 C 213.542 368.304,213.585 370.026,213.638 369.973 C 213.781 369.830,213.805 362.486,213.663 362.344 C 213.596 362.277,213.542 363.988,213.542 366.146 M309.877 366.458 C 309.877 368.464,309.909 369.284,309.947 368.281 C 309.985 367.279,309.985 365.638,309.947 364.635 C 309.909 363.633,309.877 364.453,309.877 366.458 M235.085 366.563 C 235.085 368.510,235.116 369.335,235.155 368.396 C 235.193 367.456,235.194 365.862,235.155 364.854 C 235.117 363.846,235.085 364.615,235.085 366.563 M276.752 366.563 C 276.752 368.510,276.783 369.335,276.821 368.396 C 276.860 367.456,276.860 365.862,276.822 364.854 C 276.784 363.846,276.752 364.615,276.752 366.563 M199.423 364.583 C 199.423 364.984,199.466 365.148,199.519 364.948 C 199.571 364.747,199.571 364.419,199.519 364.219 C 199.466 364.018,199.423 364.182,199.423 364.583 M338.173 364.583 C 338.173 364.984,338.216 365.148,338.269 364.948 C 338.321 364.747,338.321 364.419,338.269 364.219 C 338.216 364.018,338.173 364.182,338.173 364.583 M110.432 369.349 C 110.154 369.427,109.903 369.608,109.875 369.751 C 109.846 369.893,109.871 369.914,109.929 369.797 C 109.987 369.679,110.209 369.583,110.422 369.583 C 110.635 369.583,110.867 369.490,110.938 369.375 C 111.008 369.260,111.037 369.176,111.002 369.187 C 110.966 369.199,110.710 369.272,110.432 369.349 M158.974 369.349 C 158.696 369.427,158.445 369.608,158.416 369.751 C 158.388 369.893,158.412 369.914,158.470 369.797 C 158.529 369.679,158.751 369.583,158.963 369.583 C 159.176 369.583,159.408 369.490,159.479 369.375 C 159.550 369.260,159.579 369.176,159.544 369.187 C 159.508 369.199,159.252 369.272,158.974 369.349 M297.932 369.349 C 297.654 369.427,297.403 369.608,297.375 369.751 C 297.346 369.893,297.371 369.914,297.429 369.797 C 297.487 369.679,297.709 369.583,297.922 369.583 C 298.135 369.583,298.367 369.490,298.438 369.375 C 298.508 369.260,298.537 369.176,298.502 369.187 C 298.466 369.199,298.210 369.272,297.932 369.349 M169.948 369.529 C 170.549 369.571,171.534 369.571,172.135 369.529 C 172.737 369.487,172.245 369.452,171.042 369.452 C 169.839 369.452,169.346 369.487,169.948 369.529 M239.115 369.529 C 239.716 369.571,240.701 369.571,241.302 369.529 C 241.904 369.487,241.411 369.452,240.208 369.452 C 239.005 369.452,238.513 369.487,239.115 369.529 M248.438 369.517 C 248.667 369.580,248.932 369.738,249.026 369.868 C 249.140 370.024,249.170 369.998,249.114 369.792 C 249.068 369.620,248.803 369.462,248.525 369.441 C 248.128 369.410,248.109 369.426,248.438 369.517 M280.781 369.529 C 281.383 369.571,282.367 369.571,282.969 369.529 C 283.570 369.487,283.078 369.452,281.875 369.452 C 280.672 369.452,280.180 369.487,280.781 369.529 M313.906 369.529 C 314.508 369.571,315.492 369.571,316.094 369.529 C 316.695 369.487,316.203 369.452,315.000 369.452 C 313.797 369.452,313.305 369.487,313.906 369.529 M355.990 369.529 C 356.591 369.571,357.576 369.571,358.177 369.529 C 358.779 369.487,358.286 369.452,357.083 369.452 C 355.880 369.452,355.388 369.487,355.990 369.529 " stroke="none" fill="#a1a1a1" fill-rule="evenodd"></path><path id="path3" d="M170.885 141.185 C 171.086 141.238,171.414 141.238,171.615 141.185 C 171.815 141.133,171.651 141.090,171.250 141.090 C 170.849 141.090,170.685 141.133,170.885 141.185 M198.594 173.229 C 198.597 173.688,198.639 173.850,198.689 173.591 C 198.739 173.332,198.737 172.957,198.685 172.758 C 198.633 172.559,198.592 172.771,198.594 173.229 M131.923 173.333 C 131.923 173.734,131.966 173.898,132.019 173.698 C 132.071 173.497,132.071 173.169,132.019 172.969 C 131.966 172.768,131.923 172.932,131.923 173.333 M131.928 198.854 C 131.930 199.313,131.973 199.475,132.022 199.216 C 132.072 198.957,132.070 198.582,132.018 198.383 C 131.966 198.184,131.925 198.396,131.928 198.854 M198.590 198.750 C 198.590 199.151,198.633 199.315,198.685 199.115 C 198.738 198.914,198.738 198.586,198.685 198.385 C 198.633 198.185,198.590 198.349,198.590 198.750 " stroke="none" fill="#747474" fill-rule="evenodd"></path><path id="path4" d="" stroke="none" fill="#7c7c7c" fill-rule="evenodd"></path></g></svg>